# xmcd
#
# Track frame offsets:
#	150
#	19058
#	31329
#	47295
#	62217
#	78491
#	92301
#	107461
#	123596
#	139993
#	151796
#	168262
#	180523
#
# Disc length: 2672 seconds
# Revision: 0
# Processed by: cddbd v1.5.2PL0 Copyright (c) Steve Scherf et al.
# Submitted via: dBpowerAMP V12.0
#
DISCID=950a6e0d
DTITLE=The Farm Hands - Good Things
DYEAR=2018
DGENRE=Bluegrass
TTITLE0=Hillbilly Graham
TTITLE1=Good Things
TTITLE2=Thank You, God
TTITLE3=Long Way To Virginia
TTITLE4=Draining The Swamp
TTITLE5=Daddy's Shoes
TTITLE6=Southern Sunday Morning
TTITLE7=I'd Write You
TTITLE8=Please Don't Tell Me Goodbye
TTITLE9=Dixie Breakdown
TTITLE10=What Am I Living For
TTITLE11=Still The Solid Rock
TTITLE12=IOU
EXTD=
EXTT0=
EXTT1=
EXTT2=
EXTT3=
EXTT4=
EXTT5=
EXTT6=
EXTT7=
EXTT8=
EXTT9=
EXTT10=
EXTT11=
EXTT12=
PLAYORDER=
